<svg width="50" height="50" viewBox="0 0 50 50" fill="none" xmlns="http://www.w3.org/2000/svg">
<path d="M49.2498 31.0476C45.9109 44.4406 32.346 52.5913 18.9514 49.2515C5.56244 45.9126 -2.58827 32.3468 0.752131 18.9549C4.0896 5.56048 17.6545 -2.59084 31.0449 0.748085C44.4386 4.08702 52.5888 17.6543 49.2495 31.0479L49.2497 31.0476H49.2498Z" fill="#F7931A"/>
<path d="M36.0241 21.4381C36.5217 18.1111 33.9888 16.3228 30.5252 15.1297L31.6488 10.6231L28.9055 9.93951L27.8117 14.3275C27.0905 14.1476 26.3499 13.9781 25.6137 13.8101L26.7155 9.39317L23.9739 8.70959L22.8496 13.2148C22.2528 13.0789 21.6666 12.9446 21.0979 12.8031L21.1011 12.7889L17.318 11.8442L16.5882 14.7743C16.5882 14.7743 18.6236 15.2408 18.5807 15.2695C19.6916 15.5468 19.8925 16.2822 19.8591 16.8651L18.5792 21.9992C18.6557 22.0186 18.7549 22.0467 18.8644 22.0907C18.7729 22.068 18.6755 22.0432 18.5744 22.019L16.7804 29.2112C16.6447 29.5487 16.3001 30.0552 15.5234 29.8629C15.5509 29.9027 13.5295 29.3653 13.5295 29.3653L12.1675 32.5055L15.7375 33.3955C16.4016 33.562 17.0525 33.7363 17.6934 33.9002L16.5582 38.4585L19.2983 39.1421L20.4225 34.6321C21.1711 34.8353 21.8976 35.0228 22.6088 35.1995L21.4884 39.6882L24.2318 40.3717L25.3669 35.822C30.0449 36.7073 33.5623 36.3503 35.0429 32.1191C36.2359 28.7125 34.9835 26.7476 32.5224 25.4662C34.315 25.0528 35.6651 23.8738 36.0251 21.4384L36.0243 21.4378L36.0241 21.4381ZM29.7562 30.2273C28.9084 33.6339 23.1727 31.7924 21.3131 31.3306L22.8196 25.2916C24.6791 25.7558 30.6423 26.6745 29.7564 30.2273H29.7562ZM30.6047 21.3887C29.8313 24.4874 25.0574 22.9131 23.5088 22.5271L24.8746 17.0501C26.4232 17.4361 31.4103 18.1566 30.6049 21.3887H30.6047Z" fill="white"/>
</svg>
