<svg width="50" height="50" viewBox="0 0 50 50" fill="none" xmlns="http://www.w3.org/2000/svg">
<path d="M25 50C38.8543 50 50 38.8543 50 25C50 11.1458 38.8543 0 25 0C11.1458 0 0 11.1458 0 25C0 38.8543 11.1458 50 25 50Z" fill="#2775CA"/>
<path d="M31.8752 28.9583C31.8752 25.3125 29.6877 24.0625 25.3127 23.5418C22.1877 23.125 21.5627 22.2918 21.5627 20.8333C21.5627 19.3748 22.6045 18.4375 24.6877 18.4375C26.5627 18.4375 27.6045 19.0625 28.1252 20.625C28.2295 20.9375 28.542 21.1458 28.8545 21.1458H30.521C30.9377 21.1458 31.2502 20.8333 31.2502 20.4168V20.3125C30.8335 18.0208 28.9585 16.25 26.5627 16.0418V13.5418C26.5627 13.125 26.2502 12.8125 25.7295 12.7083H24.167C23.7502 12.7083 23.4377 13.0208 23.3335 13.5418V15.9375C20.2085 16.3543 18.2295 18.4375 18.2295 21.0418C18.2295 24.4793 20.3127 25.8333 24.6877 26.3543C27.6045 26.875 28.542 27.5 28.542 29.1668C28.542 30.8335 27.0835 31.9793 25.1045 31.9793C22.396 31.9793 21.4585 30.8333 21.146 29.2708C21.042 28.8543 20.7295 28.6458 20.417 28.6458H18.646C18.2295 28.6458 17.917 28.9583 17.917 29.375V29.4793C18.3335 32.0833 20.0002 33.9583 23.4377 34.4793V36.9793C23.4377 37.3958 23.7502 37.7083 24.271 37.8126H25.8335C26.2502 37.8126 26.5627 37.5001 26.667 36.9793V34.4793C29.792 33.9583 31.8752 31.7708 31.8752 28.9583Z" fill="white"/>
<path d="M19.6876 39.8959C11.5626 36.9794 7.39583 27.9168 10.4168 19.8958C11.9793 15.5208 15.4168 12.1875 19.6876 10.625C20.1044 10.4168 20.3126 10.1043 20.3126 9.58326V8.125C20.3126 7.70825 20.1044 7.39575 19.6876 7.29175C19.5834 7.29175 19.3751 7.29175 19.2709 7.39575C9.37509 10.5208 3.95832 21.0418 7.08333 30.9376C8.95833 36.7709 13.4376 41.2501 19.2709 43.1251C19.6876 43.3334 20.1044 43.1251 20.2084 42.7084C20.3126 42.6044 20.3126 42.5001 20.3126 42.2919V40.8334C20.3126 40.5209 20.0001 40.1044 19.6876 39.8959ZM30.7294 7.39575C30.3126 7.1875 29.8959 7.39575 29.7919 7.8125C29.6876 7.91675 29.6876 8.02075 29.6876 8.22925V9.68751C29.6876 10.1043 30.0001 10.5208 30.3126 10.7293C38.4376 13.6458 42.6044 22.7083 39.5834 30.7293C38.0209 35.1044 34.5834 38.4376 30.3126 40.0001C29.8959 40.2084 29.6876 40.5209 29.6876 41.0419V42.5001C29.6876 42.9169 29.8959 43.2294 30.3126 43.3334C30.4169 43.3334 30.6251 43.3334 30.7294 43.2294C40.6251 40.1044 46.0419 29.5833 42.9169 19.6875C41.0419 13.75 36.4584 9.27076 30.7294 7.39575Z" fill="white"/>
</svg>
