<svg width="25" height="20" viewBox="0 0 25 20" fill="none" xmlns="http://www.w3.org/2000/svg">
<path fill-rule="evenodd" clip-rule="evenodd" d="M9.14079 4.00641C8.82341 3.90675 8.52079 3.83865 8.23491 3.79797C6.79863 3.59356 5.66494 4.05224 4.88145 4.90147C3.5441 6.35105 3.42309 8.67305 4.37018 10.8589C5.35924 8.8187 6.70833 6.59192 8.50769 4.65851C8.71761 4.43295 8.92869 4.21559 9.14079 4.00641ZM12.5 1.41341C11.2521 0.703672 9.99695 0.261006 8.76313 0.0854148C6.14875 -0.286654 3.77364 0.572391 2.12578 2.35852C-1.13023 5.88777 -0.198524 10.9581 1.93616 14.2119C2.15351 14.5432 2.38928 14.8572 2.64109 15.1541C2.48739 15.6235 2.36077 16.044 2.25894 16.4018C2.14437 16.8045 2.06071 17.1296 2.00482 17.3582C1.97686 17.4725 1.95582 17.5628 1.9413 17.6268C1.93404 17.6587 1.9284 17.6841 1.92435 17.7026L1.91944 17.7252L1.91787 17.7326L1.91707 17.7364C1.91707 17.7364 1.91687 17.7373 3.75118 18.1246L1.91687 17.7373C1.70297 18.7505 2.35082 19.7452 3.36388 19.9592C4.37668 20.173 5.37109 19.5255 5.58532 18.5127L5.58548 18.512L5.58706 18.5048L5.59766 18.4573C5.6078 18.4127 5.62412 18.3425 5.64698 18.249C5.68142 18.1081 5.73065 17.9148 5.79587 17.6767C7.89725 18.8166 10.2997 19.3408 12.4185 19.3408C12.4458 19.3408 12.473 19.3402 12.5 19.339C12.527 19.3402 12.5542 19.3408 12.5815 19.3408C14.7003 19.3408 17.1028 18.8166 19.2041 17.6767C19.2694 17.9148 19.3186 18.1081 19.353 18.249C19.3759 18.3425 19.3922 18.4127 19.4023 18.4573L19.4129 18.5048L19.4145 18.512L19.4147 18.5127C19.6289 19.5255 20.6233 20.173 21.6361 19.9592C22.6492 19.7452 23.297 18.7505 23.0831 17.7373L21.2488 18.1246C23.0831 17.7373 23.0829 17.7364 23.0829 17.7364L23.0821 17.7326L23.0806 17.7252L23.0757 17.7026C23.0716 17.6841 23.066 17.6587 23.0587 17.6268C23.0442 17.5628 23.0231 17.4725 22.9952 17.3582C22.9393 17.1296 22.8556 16.8045 22.7411 16.4018C22.6392 16.044 22.5126 15.6235 22.3589 15.1541C22.6107 14.8572 22.8465 14.5432 23.0638 14.2119C25.1985 10.9581 26.1302 5.88777 22.8742 2.35852C21.2264 0.572391 18.8512 -0.286654 16.2369 0.0854148C15.003 0.261006 13.7479 0.703672 12.5 1.41341ZM12.5 6.00301C12.0926 6.35632 11.6759 6.75822 11.2523 7.21342C9.32674 9.2824 7.95982 11.8471 7.04296 14.0571C8.58152 15.0508 10.552 15.5908 12.4185 15.5908C12.4458 15.5908 12.473 15.5914 12.5 15.5926C12.527 15.5914 12.5542 15.5908 12.5815 15.5908C14.448 15.5908 16.4185 15.0508 17.957 14.0571C17.0402 11.8471 15.6733 9.2824 13.7477 7.21342C13.3241 6.75822 12.9074 6.35632 12.5 6.00301ZM20.6298 10.8589C19.6408 8.81869 18.2917 6.59192 16.4923 4.65851C16.2824 4.43295 16.0713 4.21559 15.8592 4.00641C16.1766 3.90675 16.4792 3.83865 16.7651 3.79797C18.2014 3.59356 19.3351 4.05224 20.1185 4.90147C21.4559 6.35105 21.5769 8.67305 20.6298 10.8589Z" fill="white"/>
</svg>
