<svg width="128" height="128" viewBox="0 0 128 128" fill="none" xmlns="http://www.w3.org/2000/svg">
<path fill-rule="evenodd" clip-rule="evenodd" d="M49.4882 38.1739C48.1171 37.7467 46.8098 37.4548 45.5748 37.2804C39.3701 36.4042 34.4725 38.3703 31.0879 42.0106C25.3105 48.2244 24.7877 58.1779 28.8792 67.5479C33.1519 58.8022 38.98 49.2569 46.7532 40.9691C47.6601 40.0023 48.5719 39.0705 49.4882 38.1739ZM64 27.0587C58.609 24.0164 53.1868 22.1188 47.8567 21.3661C36.5626 19.7712 26.3021 23.4536 19.1834 31.11C5.11739 46.2385 9.14238 67.9729 18.3642 81.9207C19.3032 83.3409 20.3217 84.6867 21.4095 85.9597C20.7455 87.9718 20.1985 89.774 19.7586 91.3081C19.2637 93.0341 18.9023 94.4277 18.6608 95.4075C18.5401 95.8976 18.4491 96.2847 18.3864 96.5588C18.355 96.6959 18.3307 96.8047 18.3132 96.8841L18.292 96.9809L18.2852 97.0125L18.2817 97.0287C18.2817 97.0287 18.2809 97.0327 26.2051 98.693L18.2809 97.0327C17.3568 101.376 20.1555 105.64 24.532 106.557C28.9073 107.474 33.2031 104.698 34.1286 100.357L34.1293 100.353L34.1361 100.322L34.1819 100.119C34.2257 99.9279 34.2962 99.6269 34.3949 99.2261C34.5437 98.6223 34.7564 97.7933 35.0381 96.7728C44.1161 101.659 54.4947 103.906 63.6481 103.906C63.766 103.906 63.8833 103.904 64 103.899C64.1167 103.904 64.234 103.906 64.3519 103.906C73.5053 103.906 83.8839 101.659 92.9619 96.7728C93.2436 97.7933 93.4563 98.6223 93.6051 99.2261C93.7038 99.6269 93.7743 99.9279 93.8181 100.119L93.8639 100.322L93.8707 100.353L93.8714 100.357C94.7969 104.698 99.0927 107.474 103.468 106.557C107.844 105.64 110.643 101.376 109.719 97.0327L101.795 98.693C109.719 97.0327 109.718 97.0287 109.718 97.0287L109.715 97.0125L109.708 96.9809L109.687 96.8841C109.669 96.8047 109.645 96.6959 109.614 96.5588C109.551 96.2847 109.46 95.8976 109.339 95.4075C109.098 94.4277 108.736 93.0341 108.241 91.3081C107.801 89.774 107.254 87.9718 106.591 85.9596C107.678 84.6867 108.697 83.3409 109.636 81.9207C118.858 67.9729 122.883 46.2385 108.817 31.11C101.698 23.4536 91.4374 19.7712 80.1433 21.3661C74.8132 22.1188 69.391 24.0164 64 27.0587ZM64 46.7325C62.24 48.247 60.4399 49.9698 58.6098 51.921C50.2915 60.7899 44.3864 71.7836 40.4256 81.257C47.0722 85.5169 55.5845 87.8316 63.6481 87.8316C63.766 87.8316 63.8833 87.8341 64 87.839C64.1167 87.8341 64.234 87.8316 64.3519 87.8316C72.4155 87.8316 80.9278 85.5169 87.5744 81.257C83.6136 71.7836 77.7085 60.7899 69.3902 51.921C67.5601 49.9698 65.7601 48.247 64 46.7325ZM99.1208 67.5479C94.8481 58.8022 89.02 49.2569 81.2468 40.9691C80.3399 40.0023 79.4281 39.0705 78.5118 38.1739C79.8829 37.7467 81.1902 37.4548 82.4252 37.2804C88.6299 36.4042 93.5275 38.3703 96.9121 42.0106C102.689 48.2244 103.212 58.1779 99.1208 67.5479Z" fill="#FE8761"/>
</svg>
