<svg width="52" height="42" viewBox="0 0 52 42" fill="none" xmlns="http://www.w3.org/2000/svg">
<path d="M49.0416 1.66665C49.0416 1.66665 46.4583 3.74995 42.8333 4.12495C42.8333 4.12495 37.125 -2.25005 28.9583 3.29165C25.2916 5.87495 24.9583 11.3334 25.5833 13.2917C25.5833 13.2917 14.5 14.1667 4.83328 2.83335C4.83328 2.83335 0.499985 10.3334 7.66658 16.3334C7.66658 16.3334 5.54838 16.6667 3.53488 15.0001C3.53488 15.0001 2.58318 22.7501 11.2499 24.9168C11.2499 24.9168 10.6666 25.9168 7.16658 24.9168C7.16658 24.9168 7.74988 31.2501 15.9999 32.1668C15.9999 32.1668 11.543 36.7501 1.52148 36.1668C1.52148 36.1668 18.0833 48.5835 35.9999 33.5835C45.9999 25.0835 45.6666 12.8335 45.4999 11.0002C45.4999 11.0002 49.449 8.00015 50.4745 6.08345C50.4745 6.08345 47.4166 7.08345 44.9166 7.08345C44.9166 7.08325 48.2499 5.33325 49.0416 1.66665Z" stroke="currentColor" stroke-width="2" stroke-miterlimit="10" stroke-linecap="round" stroke-linejoin="round"/>
</svg>
