<svg width="60" height="60" viewBox="0 0 60 60" fill="none" xmlns="http://www.w3.org/2000/svg">
<path d="M60 47.1423C60 49.1012 58.4121 50.6892 56.4533 50.6892H3.54668C1.58789 50.6894 0 49.1012 0 47.1423V12.8575C0 10.8987 1.58789 9.31067 3.54668 9.31067H56.4533C58.4122 9.31067 60 10.8987 60 12.8575V47.1423Z" fill="#306FC5"/>
<path opacity="0.15" d="M2.52152 47.1423V12.8575C2.52152 10.8987 4.10965 9.31067 6.06844 9.31067H3.54656C1.58789 9.31067 0 10.8986 0 12.8575V47.1424C0 49.1014 1.58789 50.6894 3.54668 50.6894H6.06855C4.10977 50.6894 2.52152 49.1012 2.52152 47.1423Z" fill="#202121"/>
<path d="M8.74121 25.8689H10.5339L9.63781 23.5873L8.74121 25.8689Z" fill="white"/>
<path d="M18.2754 33.5282V34.5877H21.2905V35.7287H18.2754V36.9514H21.6163L23.1644 35.2397L21.6978 33.5282H18.2754Z" fill="white"/>
<path d="M41.8241 23.5873L40.8462 25.8689H42.7206L41.8241 23.5873Z" fill="white"/>
<path d="M26.9942 37.6025V32.9579L24.8755 35.2396L26.9942 37.6025Z" fill="white"/>
<path d="M30.9872 34.2619C30.9056 33.773 30.5794 33.5282 30.0902 33.5282H28.3794V34.9949H30.1722C30.661 34.995 30.9872 34.7507 30.9872 34.2619Z" fill="white"/>
<path d="M36.6907 34.8324C36.8537 34.7507 36.9355 34.506 36.9355 34.262C37.017 33.9364 36.8537 33.7731 36.6907 33.6915C36.5281 33.61 36.2833 33.61 36.0392 33.61H34.4092V34.9139H36.0391C36.2832 34.9139 36.528 34.9139 36.6907 34.8324Z" fill="white"/>
<path d="M48.4241 21.4685V22.4463L47.9356 21.4685H44.1061V22.4463L43.617 21.4685H38.4019C37.5057 21.4685 36.7719 21.6316 36.1204 21.9575V21.4685H32.4537V21.5501V21.9575C32.0464 21.6317 31.5574 21.4685 30.9055 21.4685H17.7864L16.8897 23.5057L15.9935 21.4685H13.0602H11.8378V22.4463L11.4304 21.4685H11.3488H7.845L6.21504 25.2982L4.34109 29.4539L4.30664 29.5356H4.34109H8.49692H8.54895L8.57848 29.4539L9.06762 28.2319H10.1269L10.6158 29.5356H15.3415V29.4539V28.5578L15.7492 29.5355H18.112L18.5193 28.5578V29.4539V29.5356H20.3935H29.7644H29.8459V27.4168H30.0093C30.1721 27.4168 30.1721 27.4168 30.1721 27.6614V29.454H36.0391V28.9651C36.528 29.2099 37.2609 29.454 38.2388 29.454H40.6837L41.1726 28.1505H42.313L42.802 29.454H47.5279V28.6393V28.232L48.2616 29.454H48.4241H48.5059H52.0913V21.4685H48.4244H48.4241ZM20.8011 28.3135H19.9861H19.4973V27.825V23.8317L19.4158 24.0186V24.0164L17.5201 28.3135H17.4601H17.0243H16.3192L14.3637 23.8317V28.3135H11.5934L11.023 27.0913H8.25223L7.68176 28.3135H6.24938L8.65993 22.6094H10.6969L12.9784 28.0689V22.6094H13.4672H15.1372L15.1757 22.6911H15.1785L16.2066 24.9287L16.9449 26.6052L16.971 26.5207L18.6006 22.6096H20.801V28.3135H20.8011ZM26.4238 23.8317H23.2458V24.891H26.3422V26.0317H23.2458V27.1728H26.4238V28.3948H21.8606V22.6096H26.4238V23.8317ZM32.2357 25.9329C32.2378 25.9348 32.2405 25.936 32.2431 25.9378C32.2739 25.9704 32.3003 26.0031 32.3228 26.0344C32.4789 26.239 32.6051 26.5433 32.6114 26.9896C32.6119 26.9973 32.6123 27.0049 32.6127 27.0126C32.6127 27.0171 32.6135 27.021 32.6135 27.0255C32.6135 27.0281 32.6133 27.0301 32.6133 27.0326C32.6152 27.0774 32.6164 27.1233 32.6164 27.1728V28.3137H31.3943V27.6615C31.3943 27.3356 31.3943 26.8466 31.1495 26.5207C31.0725 26.4437 30.9946 26.393 30.9098 26.3569C30.7876 26.2778 30.5562 26.2765 30.1721 26.2765H28.7049V28.3137H27.3199V22.6096H30.4166C31.1495 22.6096 31.6387 22.6096 32.0462 22.854C32.4455 23.0938 32.6867 23.4914 32.6958 24.121C32.6769 24.9882 32.1203 25.464 31.7201 25.6244C31.7201 25.6244 31.992 25.6792 32.2357 25.9329ZM34.9797 28.3135H33.5943V22.6094H34.9797V28.3135ZM50.8694 28.3135H49.0764L46.469 23.9946V27.58L46.4604 27.5715V28.3171H45.0838V28.3137H43.6984L43.2095 27.0914H40.3573L39.8684 28.3949H38.3202C37.6688 28.3949 36.8534 28.2321 36.3647 27.7432C35.8758 27.2543 35.6316 26.6024 35.6316 25.5432C35.6316 24.7284 35.7944 23.913 36.3647 23.2614C36.7718 22.7721 37.5055 22.6096 38.4017 22.6096H39.7057V23.8317H38.4017C37.9128 23.8317 37.6688 23.9129 37.3422 24.1578C37.0982 24.4022 36.9351 24.891 36.9351 25.4613C36.9351 26.1133 37.0166 26.5207 37.3422 26.8466C37.5872 27.0914 37.9129 27.173 38.3202 27.173H38.8906L40.7645 22.6914H41.5798H42.8018L45.0837 28.1508V27.8723V26.0319V25.8691V22.6915H47.1207L49.4833 26.6841V22.6915H50.8691V28.3138H50.8694V28.3135Z" fill="white"/>
<path d="M31.0737 24.9851C31.0975 24.9597 31.119 24.9309 31.1373 24.8978C31.2111 24.781 31.2957 24.5705 31.2502 24.2833C31.2483 24.2569 31.2435 24.2326 31.2379 24.209C31.2363 24.2024 31.2366 24.1967 31.2348 24.1901L31.234 24.1903C31.1934 24.0507 31.09 23.9649 30.9867 23.9129C30.8234 23.8317 30.5789 23.8317 30.3346 23.8317H28.7046V25.1356H30.3346C30.5789 25.1356 30.8235 25.1356 30.9867 25.0539C31.0112 25.0415 31.033 25.0246 31.054 25.0055L31.0542 25.0066C31.0543 25.0065 31.0627 24.9978 31.0737 24.9851Z" fill="white"/>
<path d="M55.6765 36.4622C55.6765 35.8918 55.5137 35.3213 55.2694 34.9139V31.2472H55.2656V31.0024C55.2656 31.0024 51.8502 31.0024 51.3418 31.0024C50.8337 31.0024 50.2171 31.4912 50.2171 31.4912V31.0024H46.4689C45.8982 31.0024 45.1653 31.1656 44.839 31.4912V31.0024H38.1574V31.2472V31.4911C37.6689 31.084 36.7718 31.0023 36.3647 31.0023H31.9644V31.2471V31.491C31.5571 31.0839 30.5788 31.0022 30.0896 31.0022H25.2013L24.0602 32.2246L23.0008 31.0022H22.6597H22.1046H15.6675V31.247V31.8907V39.2326H22.8382L24.0164 38.0541L25.0377 39.2326H25.1195H29.2513H29.4385H29.5201H29.6012V38.4178V37.3586H30.0089C30.5788 37.3586 31.3125 37.3586 31.8828 37.1138V39.1507V39.3141H35.5497V39.1507V37.1953H35.7123C35.9571 37.1953 35.9571 37.1953 35.9571 37.4398V39.1507V39.3141H47.0387C47.7726 39.3141 48.5055 39.1507 48.9129 38.8248V39.1507V39.3141H52.417C53.1499 39.3141 53.8839 39.2326 54.3728 38.9065C55.123 38.4564 55.5958 37.6596 55.6662 36.7093C55.6694 36.6812 55.6735 36.6531 55.6761 36.6249L55.6713 36.6203C55.6744 36.5676 55.6765 36.5154 55.6765 36.4622ZM30.009 35.9734H28.3789V36.2173V36.7064V37.1954V38.0918H25.7006L24.1418 36.299L24.1364 36.3049L24.0602 36.2173L22.2676 38.0918H17.0526V32.3879H22.3492L23.7962 33.9729L24.1004 34.3048L24.1417 34.262L25.8531 32.3881H30.1717C31.0098 32.3881 31.9483 32.5949 32.304 33.4477C32.3468 33.6165 32.3716 33.8043 32.3716 34.0175C32.3716 35.6472 31.2308 35.9734 30.009 35.9734ZM38.1574 35.8917C38.3202 36.1356 38.4017 36.4621 38.4017 36.9512V38.0917H37.0167V37.3586C37.0167 37.0321 37.0167 36.4621 36.7719 36.2173C36.6094 35.9734 36.283 35.9734 35.7944 35.9734H34.3278V38.0918H32.9427V32.3064H36.0389C36.6903 32.3064 37.2607 32.3064 37.6689 32.5506C38.076 32.7953 38.4017 33.2027 38.4017 33.8547C38.4017 34.7508 37.8316 35.2397 37.424 35.4029C37.8316 35.5652 38.076 35.7287 38.1574 35.8917ZM43.7801 33.5282H40.6017V34.5875H43.6983V35.7286H40.6017V36.8695H43.7801V38.0917H39.2169V32.3063H43.7801V33.5282ZM47.2022 38.0918H44.5945V36.8697H47.2022C47.4462 36.8697 47.6095 36.8697 47.7729 36.7065C47.8544 36.6249 47.9354 36.4622 47.9354 36.2991C47.9354 36.1357 47.8544 35.9735 47.7729 35.8918C47.6911 35.8104 47.5278 35.7288 47.2835 35.7288C45.9797 35.6473 44.4315 35.7288 44.4315 33.9363C44.4315 33.1214 44.9204 32.2249 46.3873 32.2249H49.0761V33.61H46.5503C46.3059 33.61 46.1427 33.61 45.9796 33.6915C45.817 33.7732 45.817 33.9363 45.817 34.0991C45.817 34.3437 45.9796 34.4252 46.1426 34.5061C46.3059 34.5878 46.4687 34.5878 46.6315 34.5878H47.3649C48.0984 34.5878 48.5872 34.7508 48.9131 35.0768C49.1577 35.3214 49.3207 35.7288 49.3207 36.2991C49.3207 37.521 48.5873 38.0918 47.2022 38.0918ZM54.2099 37.521C53.8843 37.8474 53.3136 38.0918 52.4985 38.0918H49.8915V36.8697H52.4983C52.7429 36.8697 52.9063 36.8697 53.0691 36.7065C53.1503 36.6249 53.2321 36.4622 53.2321 36.2991C53.2321 36.1357 53.1503 35.9735 53.0691 35.8918C52.9875 35.8104 52.8247 35.7288 52.5801 35.7288C51.2768 35.6473 49.7282 35.7288 49.7282 33.9365C49.7282 33.162 50.1712 32.4624 51.264 32.2546C51.3947 32.2365 51.5327 32.2249 51.6839 32.2249H54.3731V33.61H52.5801H51.9285H51.8469C51.6023 33.61 51.4396 33.61 51.2768 33.6915C51.1948 33.7732 51.1132 33.9363 51.1132 34.0991C51.1132 34.3437 51.1948 34.4252 51.4396 34.5061C51.6023 34.5878 51.7653 34.5878 51.9285 34.5878H52.0094H52.6616C53.0177 34.5878 53.287 34.6317 53.5335 34.7183C53.7592 34.8 54.5064 35.1342 54.6735 36.0067C54.688 36.0981 54.6987 36.1935 54.6987 36.2991C54.6987 36.7881 54.5357 37.1954 54.2099 37.521Z" fill="white"/>
</svg>
