<svg width="60" height="60" viewBox="0 0 60 60" fill="none" xmlns="http://www.w3.org/2000/svg">
<path d="M3.07692 10.7693H56.9231C58.6225 10.7693 60 12.1469 60 13.8462V46.1539C60 47.8533 58.6225 49.2308 56.9231 49.2308H3.07692C1.37762 49.2308 0 47.8533 0 46.1539V13.8462C0 12.1469 1.37762 10.7693 3.07692 10.7693Z" fill="#16366F"/>
<path d="M34.539 30C34.539 37.6263 28.3567 43.8076 20.7305 43.8076C13.1044 43.8076 6.92285 37.626 6.92285 30C6.92285 22.3743 13.1045 16.1923 20.7305 16.1923C28.3565 16.1923 34.539 22.3746 34.539 30Z" fill="#D9222A"/>
<path d="M39.2685 16.192C35.7008 16.192 32.4498 17.5456 29.9992 19.7663C29.5 20.2193 29.034 20.7076 28.605 21.2276H31.3947C31.7767 21.6919 32.1282 22.1805 32.4474 22.6901H27.5524C27.258 23.1609 26.9924 23.6492 26.7569 24.1522H33.2425C33.465 24.628 33.6602 25.1161 33.8271 25.6141H26.1723C26.0115 26.0937 25.8775 26.5819 25.771 27.0763H34.2279C34.4348 28.0371 34.539 29.0172 34.5388 30C34.5388 31.5334 34.2885 33.0087 33.8269 34.3862H26.1721C26.3386 34.8846 26.5337 35.3727 26.7564 35.8485H33.2423C33.0066 36.3516 32.7408 36.8399 32.4464 37.311H27.5521C27.8717 37.8209 28.2237 38.3094 28.6048 38.7722H31.3939C30.9655 39.2932 30.4993 39.7819 29.9993 40.2347C32.4501 42.4552 35.7007 43.8081 39.2685 43.8081C46.8945 43.808 53.077 37.6264 53.077 30.0004C53.077 22.375 46.8947 16.1927 39.2685 16.1927" fill="#EE9F2D"/>
<path d="M51.2369 37.6969C51.2369 37.4507 51.4363 37.2507 51.6828 37.2507C51.9293 37.2507 52.1286 37.4507 52.1286 37.6969C52.1286 37.943 51.9293 38.143 51.6828 38.143C51.4365 38.1429 51.2369 37.9431 51.2369 37.6969ZM51.6828 38.036C51.8701 38.0359 52.0218 37.8841 52.0219 37.6969C52.0219 37.5097 51.8702 37.3581 51.6831 37.3581H51.6828C51.4959 37.3578 51.3443 37.5091 51.344 37.696V37.697C51.3438 37.8841 51.4953 38.0359 51.6824 38.0361C51.6825 38.036 51.6826 38.036 51.6828 38.036ZM51.6226 37.8929H51.5312V37.5011H51.6965C51.7311 37.5011 51.7663 37.5011 51.7969 37.5206C51.8286 37.542 51.8466 37.5798 51.8466 37.6189C51.8466 37.6627 51.8206 37.7038 51.7786 37.7198L51.8507 37.8929H51.7496L51.6896 37.7378H51.6226V37.8929H51.6226ZM51.6226 37.6706H51.6732C51.6921 37.6706 51.7119 37.6721 51.729 37.6629C51.744 37.6533 51.7517 37.6353 51.7517 37.618C51.7517 37.603 51.7425 37.5857 51.7296 37.5783C51.7136 37.5682 51.6883 37.5705 51.6713 37.5705H51.6226V37.6706ZM17.5072 31.5119C17.3499 31.4937 17.2807 31.4887 17.1726 31.4887C16.323 31.4887 15.8928 31.7802 15.8928 32.3555C15.8928 32.7102 16.1028 32.936 16.4303 32.936C17.0409 32.936 17.481 32.3544 17.5072 31.5119ZM18.5973 34.05H17.3553L17.3838 33.4596C17.005 33.9263 16.4995 34.148 15.8127 34.148C15.0002 34.148 14.4431 33.5134 14.4431 32.592C14.4431 31.2055 15.4121 30.3966 17.0752 30.3966C17.2451 30.3966 17.463 30.412 17.6861 30.4403C17.7326 30.2526 17.7448 30.1722 17.7448 30.0711C17.7448 29.6936 17.4835 29.5528 16.7832 29.5528C16.0499 29.5445 15.4451 29.7275 15.1967 29.8093C15.2124 29.7146 15.4044 28.5279 15.4044 28.5279C16.1514 28.309 16.6441 28.2266 17.1986 28.2266C18.4858 28.2266 19.1675 28.8044 19.1663 29.8967C19.1688 30.1894 19.1204 30.5506 19.0448 31.0253C18.9146 31.8507 18.6355 33.619 18.5973 34.05ZM13.8159 34.05H12.3168L13.1755 28.6656L11.2582 34.05H10.2367L10.1105 28.6964L9.20792 34.05H7.80469L8.97684 27.0459H11.1322L11.263 30.9663L12.5778 27.0459H14.9752L13.8159 34.05ZM41.122 31.5119C40.9653 31.4937 40.8957 31.4887 40.788 31.4887C39.9387 31.4887 39.5085 31.7802 39.5085 32.3555C39.5085 32.7102 39.7182 32.936 40.0457 32.936C40.6563 32.936 41.0967 32.3544 41.122 31.5119ZM42.213 34.05H40.9711L40.9992 33.4596C40.6203 33.9263 40.1146 34.148 39.4284 34.148C38.6157 34.148 38.0592 33.5134 38.0592 32.592C38.0592 31.2055 39.0274 30.3966 40.6909 30.3966C40.8607 30.3966 41.0783 30.412 41.3012 30.4403C41.3477 30.2526 41.3599 30.1722 41.3599 30.0711C41.3599 29.6936 41.099 29.5528 40.3987 29.5528C39.6653 29.5445 39.0611 29.7275 38.8117 29.8093C38.8275 29.7146 39.0201 28.5279 39.0201 28.5279C39.7673 28.309 40.2596 28.2266 40.8133 28.2266C42.1011 28.2266 42.7829 28.8044 42.7817 29.8967C42.7841 30.1894 42.7357 30.5506 42.6601 31.0253C42.5307 31.8507 42.2509 33.619 42.213 34.05ZM25.26 33.9635C24.8497 34.0927 24.5298 34.148 24.1831 34.148C23.4167 34.148 22.9984 33.7077 22.9984 32.8967C22.9875 32.6452 23.1087 31.983 23.2038 31.3785C23.2904 30.8464 23.8538 27.4916 23.8538 27.4916H25.3439L25.1699 28.3538H26.0699L25.8666 29.7227H24.9634C24.7903 30.806 24.5438 32.1554 24.541 32.3343C24.541 32.6279 24.6977 32.756 25.0541 32.756C25.2249 32.756 25.3572 32.7387 25.4583 32.7022L25.26 33.9635ZM29.8285 33.9174C29.3167 34.0737 28.8227 34.1494 28.2994 34.1481C26.6314 34.1465 25.7619 33.2754 25.7619 31.6072C25.7619 29.66 26.8681 28.2266 28.3696 28.2266C29.598 28.2266 30.3827 29.0292 30.3827 30.2879C30.3827 30.7055 30.3288 31.1132 30.1991 31.6888H27.2317C27.1314 32.5151 27.6602 32.8593 28.5269 32.8593C29.0604 32.8593 29.5414 32.7493 30.0763 32.5007L29.8285 33.9174ZM28.9911 30.5404C28.9993 30.4217 29.149 29.5237 28.2977 29.5237C27.8231 29.5237 27.4837 29.8856 27.3454 30.5404H28.9911ZM19.4972 30.1545C19.4972 30.875 19.8465 31.3718 20.6388 31.745C21.2459 32.0303 21.3398 32.1149 21.3398 32.3734C21.3398 32.7286 21.0721 32.8888 20.4789 32.8888C20.0318 32.8888 19.6158 32.819 19.136 32.6642C19.136 32.6642 18.9388 33.9196 18.9298 33.9797C19.2706 34.054 19.5744 34.1228 20.4898 34.1481C22.0715 34.1481 22.802 33.5459 22.802 32.2443C22.802 31.4616 22.4962 31.0023 21.7453 30.6571C21.1168 30.3687 21.0446 30.3042 21.0446 30.0382C21.0446 29.7302 21.2937 29.5731 21.7783 29.5731C22.0725 29.5731 22.4744 29.6045 22.8552 29.6587L23.0687 28.3376C22.6805 28.276 22.0921 28.2266 21.7494 28.2266C20.0725 28.2266 19.4921 29.1026 19.4972 30.1545ZM37.1195 28.3763C37.5359 28.3763 37.924 28.4856 38.459 28.7548L38.7041 27.2346C38.4846 27.1485 37.7115 26.6423 37.0567 26.6423C36.0535 26.6423 35.2055 27.14 34.609 27.9616C33.739 27.6734 33.3814 28.2558 32.943 28.836L32.5536 28.9266C32.583 28.7356 32.6097 28.5459 32.6007 28.3539H31.2241C31.036 30.1167 30.7027 31.9023 30.4417 33.6674L30.3737 34.0501H31.8734C32.1237 32.4237 32.261 31.3823 32.3443 30.6777L32.909 30.3635C32.9934 30.0496 33.2574 29.9437 33.7872 29.9564C33.716 30.3417 33.6804 30.7326 33.6808 31.1244C33.6808 32.9879 34.6863 34.1481 36.3 34.1481C36.7157 34.1481 37.0725 34.0934 37.6247 33.9437L37.8887 32.3468C37.3917 32.5914 36.984 32.7065 36.6147 32.7065C35.7434 32.7065 35.216 32.0633 35.216 31C35.216 29.4577 36.0003 28.3763 37.1195 28.3763Z" fill="black"/>
<path d="M14.2471 33.6338H12.7478L13.607 28.2502L11.6897 33.6338H10.668L10.5417 28.2809L9.63915 33.6338H8.23584L9.40799 26.6306H11.5634L11.624 30.9662L13.0781 26.6306H15.4064L14.2471 33.6338Z" fill="white"/>
<path d="M49.809 27.0461L49.4768 29.0698C49.0668 28.5305 48.6265 28.1401 48.0451 28.1401C47.2886 28.1401 46.6001 28.7135 46.1495 29.5574C45.522 29.4272 44.8728 29.2064 44.8728 29.2064L44.8725 29.2115C44.9231 28.7398 44.9433 28.4519 44.9388 28.3541H43.5619C43.3745 30.117 43.0411 31.9026 42.7806 33.6676L42.7119 34.0504H44.2113C44.4138 32.7352 44.569 31.6432 44.6831 30.7772C45.1953 30.3144 45.4517 29.9105 45.9693 29.9375C45.7401 30.4918 45.6058 31.1301 45.6058 31.7849C45.6058 33.209 46.3264 34.1484 47.4161 34.1484C47.9655 34.1484 48.3869 33.959 48.7981 33.5199L48.728 34.0495H50.1459L51.2876 27.0461H49.809ZM47.9344 32.734C47.4241 32.734 47.1665 32.3564 47.1665 31.6111C47.1665 30.4917 47.6488 29.6977 48.3289 29.6977C48.8439 29.6977 49.1228 30.0903 49.1228 30.8137C49.1228 31.943 48.6328 32.734 47.9344 32.734Z" fill="black"/>
<path d="M17.9375 31.097C17.7804 31.0788 17.7109 31.0739 17.6032 31.0739C16.7535 31.0739 16.3236 31.3653 16.3236 31.9406C16.3236 32.2947 16.5336 32.5211 16.8606 32.5211C17.4717 32.521 17.9118 31.9397 17.9375 31.097ZM19.0282 33.6342H17.7862L17.8144 33.0447C17.4359 33.5104 16.9298 33.7332 16.2436 33.7332C15.4307 33.7332 14.874 33.0986 14.874 32.1771C14.874 30.79 15.8426 29.9816 17.506 29.9816C17.6759 29.9816 17.8939 29.997 18.1166 30.0255C18.1631 29.8377 18.1752 29.7573 18.1752 29.6556C18.1752 29.2781 17.9144 29.138 17.214 29.138C16.4804 29.1296 15.8759 29.3127 15.6272 29.3935C15.6429 29.2992 15.8349 28.1136 15.8349 28.1136C16.5817 27.8938 17.0749 27.8113 17.6288 27.8113C18.9163 27.8113 19.5983 28.3896 19.5971 29.481C19.5993 29.7748 19.5505 30.1357 19.4752 30.6098C19.3455 31.4348 19.066 33.204 19.0282 33.6342ZM39.1343 26.8194L38.8887 28.34C38.3541 28.071 37.9657 27.9614 37.5497 27.9614C36.4304 27.9614 35.6459 29.0428 35.6459 30.585C35.6459 31.6482 36.1734 32.2913 37.0446 32.2913C37.4138 32.2913 37.8212 32.1765 38.318 31.9315L38.0549 33.5277C37.5023 33.6784 37.146 33.7332 36.7298 33.7332C35.1163 33.7332 34.1106 32.5729 34.1106 30.7094C34.1106 28.2056 35.4997 26.4556 37.4866 26.4556C38.141 26.4556 38.9144 26.7332 39.1343 26.8194ZM41.5529 31.097C41.3959 31.0788 41.3266 31.0739 41.2186 31.0739C40.3692 31.0739 39.939 31.3653 39.939 31.9406C39.939 32.2947 40.149 32.5211 40.4763 32.5211C41.0868 32.521 41.5272 31.9397 41.5529 31.097ZM42.6436 33.6342H41.4013L41.4297 33.0447C41.051 33.5104 40.5451 33.7332 39.859 33.7332C39.0464 33.7332 38.4894 33.0986 38.4894 32.1771C38.4894 30.79 39.4583 29.9816 41.1211 29.9816C41.2913 29.9816 41.509 29.997 41.732 30.0255C41.7782 29.8377 41.7906 29.7573 41.7906 29.6556C41.7906 29.2781 41.5297 29.138 40.8294 29.138C40.0961 29.1296 39.4913 29.3127 39.2426 29.3935C39.2583 29.2992 39.4506 28.1136 39.4506 28.1136C40.1974 27.8938 40.6903 27.8113 41.2441 27.8113C42.532 27.8113 43.2136 28.3896 43.212 29.481C43.2146 29.7748 43.1663 30.1357 43.0906 30.6098C42.9612 31.4348 42.681 33.204 42.6436 33.6342ZM25.6905 33.5479C25.2799 33.6771 24.9601 33.7332 24.6136 33.7332C23.8472 33.7332 23.429 33.2927 23.429 32.482C23.4184 32.2296 23.5395 31.568 23.6348 30.9637C23.7209 30.4309 24.2845 27.0765 24.2845 27.0765H25.7742L25.6005 27.939H26.3652L26.1617 29.3073H25.3944C25.2213 30.3912 24.9742 31.7395 24.9716 31.9187C24.9716 32.2133 25.1287 32.3405 25.4848 32.3405C25.6555 32.3405 25.7877 32.3238 25.8889 32.2873L25.6905 33.5479ZM30.2591 33.5024C29.7476 33.6588 29.253 33.7342 28.7299 33.7332C27.0619 33.7316 26.1925 32.8604 26.1925 31.1922C26.1925 29.2444 27.2986 27.8114 28.8001 27.8114C30.0286 27.8114 30.8132 28.6136 30.8132 29.873C30.8132 30.2909 30.7594 30.6986 30.63 31.2739H27.6627C27.5622 32.1001 28.0911 32.4447 28.9578 32.4447C29.4909 32.4447 29.9723 32.3344 30.5068 32.085L30.2591 33.5024ZM29.4213 30.1246C29.4303 30.0063 29.5797 29.1079 28.728 29.1079C28.2537 29.1079 27.9142 29.4707 27.7761 30.1246H29.4213ZM19.9275 29.7397C19.9275 30.46 20.2769 30.9563 21.0692 31.33C21.6762 31.6153 21.7701 31.7002 21.7701 31.9585C21.7701 32.3137 21.5022 32.4739 20.9095 32.4739C20.4621 32.4739 20.0461 32.404 19.5659 32.2493C19.5659 32.2493 19.3695 33.5047 19.3606 33.5647C19.7005 33.639 20.0047 33.707 20.9201 33.7332C22.5022 33.7332 23.2323 33.131 23.2323 31.8297C23.2323 31.0466 22.9268 30.5873 22.1755 30.2422C21.5473 29.9531 21.4746 29.8897 21.4746 29.6233C21.4746 29.3156 21.7242 29.1573 22.2085 29.1573C22.5025 29.1573 22.9044 29.1896 23.2858 29.2438L23.4989 27.9223C23.1112 27.8607 22.5227 27.8114 22.18 27.8114C20.5028 27.8114 19.9227 28.6867 19.9275 29.7397ZM50.5774 33.6342H49.1592L49.2297 33.104C48.8184 33.5437 48.397 33.7332 47.8476 33.7332C46.7578 33.7332 46.0376 32.7937 46.0376 31.3697C46.0376 29.4751 47.1546 27.878 48.4768 27.878C49.0582 27.878 49.4983 28.1155 49.9079 28.6546L50.2406 26.6309H51.7191L50.5774 33.6342ZM48.3662 32.3181C49.0643 32.3181 49.5547 31.5271 49.5547 30.3987C49.5547 29.6752 49.2755 29.2826 48.7605 29.2826C48.0806 29.2826 47.5977 30.0762 47.5977 31.196C47.5976 31.9411 47.8559 32.3181 48.3662 32.3181ZM43.9937 27.939C43.8061 29.7018 43.4727 31.4874 43.212 33.2515L43.1435 33.6342H44.6428C45.179 30.1515 45.3088 29.4713 46.1496 29.5566C46.2836 28.8438 46.5328 28.2194 46.7187 27.9043C46.0908 27.7736 45.7402 28.1284 45.2812 28.8024C45.3174 28.5111 45.3838 28.2281 45.3706 27.939H43.9937ZM31.6538 27.939C31.4656 29.7018 31.1322 31.4874 30.8717 33.2515L30.8034 33.6342H32.3034C32.839 30.1515 32.9685 29.4713 33.8087 29.5566C33.9434 28.8438 34.1927 28.2194 34.378 27.9043C33.7507 27.7736 33.3998 28.1284 32.9412 28.8024C32.9774 28.5111 33.0431 28.2281 33.0306 27.939H31.6538ZM51.236 33.1883C51.236 32.9411 51.4357 32.7422 51.6819 32.7422C51.9278 32.742 52.1274 32.9412 52.1276 33.1872V33.1883C52.1275 33.4345 51.928 33.634 51.6819 33.6342C51.4357 33.634 51.2362 33.4345 51.236 33.1883ZM51.6819 33.5271C51.8689 33.5272 52.0205 33.3756 52.0205 33.1886V33.1884C52.0208 33.0013 51.8692 32.8495 51.6822 32.8493H51.6819C51.4945 32.8494 51.3428 33.0012 51.3427 33.1884C51.3429 33.3755 51.4947 33.5271 51.6819 33.5271ZM51.6215 33.3833H51.5302V32.9922H51.6959C51.7302 32.9922 51.7657 32.9928 51.7955 33.0117C51.8275 33.0335 51.8459 33.0707 51.8459 33.1097C51.8459 33.154 51.8199 33.1954 51.7775 33.211L51.8499 33.383H51.7485L51.6885 33.2286H51.6215V33.383V33.3833ZM51.6215 33.1617H51.6719C51.6907 33.1617 51.7113 33.1631 51.7279 33.154C51.7429 33.1444 51.7506 33.1263 51.7506 33.1089C51.7499 33.0927 51.7418 33.0778 51.7285 33.0686C51.7129 33.0596 51.6869 33.062 51.6699 33.062H51.6215V33.1617H51.6215Z" fill="white"/>
</svg>
