<svg width="60" height="60" viewBox="0 0 60 60" fill="none" xmlns="http://www.w3.org/2000/svg">
<path d="M31.0306 26.4676C30.9963 29.1666 33.4358 30.6728 35.2736 31.5682C37.1617 32.4871 37.7959 33.0762 37.7887 33.8978C37.7743 35.1554 36.2825 35.7103 34.8862 35.7319C32.4503 35.7698 31.0342 35.0743 29.9081 34.5482L29.0307 38.6543C30.1604 39.175 32.2521 39.629 34.4214 39.6488C39.5129 39.6488 42.8443 37.1354 42.8623 33.2384C42.8821 28.2927 36.0213 28.0189 36.0681 25.8082C36.0843 25.138 36.7239 24.4227 38.1256 24.2407C38.8193 24.1488 40.7345 24.0786 42.9055 25.0785L43.7577 21.1058C42.5902 20.6806 41.0894 20.2734 39.2211 20.2734C34.4286 20.2734 31.0576 22.821 31.0306 26.4676ZM51.9464 20.6157C51.0168 20.6157 50.233 21.158 49.8835 21.9904L42.6101 39.3569H47.698L48.7106 36.5589H54.9282L55.5156 39.3569H60L56.0867 20.6157H51.9464ZM52.6581 25.6785L54.1265 32.7159H50.1051L52.6581 25.6785ZM24.8616 20.6157L20.851 39.3569H25.6994L29.7081 20.6157H24.8616ZM17.689 20.6157L12.6425 33.3717L10.6012 22.5255C10.3615 21.3148 9.41565 20.6157 8.36526 20.6157H0.115308L0 21.1598C1.69359 21.5274 3.6178 22.1201 4.7835 22.7543C5.49697 23.1417 5.70056 23.4804 5.93478 24.4011L9.80121 39.3569H14.9252L22.7806 20.6157H17.689Z" fill="url(#paint0_linear_237_371)"/>
<defs>
<linearGradient id="paint0_linear_237_371" x1="27.5845" y1="40.0375" x2="28.1453" y2="20.1387" gradientUnits="userSpaceOnUse">
<stop stop-color="#222357"/>
<stop offset="1" stop-color="#254AA5"/>
</linearGradient>
</defs>
</svg>
